<svg width="24" height="23" viewBox="0 0 24 23" xmlns="http://www.w3.org/2000/svg">
  <path class="icon" d="M12.01.315C5.856.315.92 5.3.92 11.435c0 6.14 4.936 11.122 11.09 11.122 6.152 0 11.15-4.982 11.15-11.12 0-6.137-5-11.122-11.15-11.122zm-3.942 5.56h7.894v1.59h-2.926c.373.476.636 1.016.76 1.588h2.166v1.59h-2.166c-.308 1.422-1.426 2.714-3.166 3.068l3.83 3.742-1.112 1.136-4.893-4.782h-.422v-.413l.013-.05-.013-.048V12.22h1.052l.01-.017.01.016h.557c1.483 0 2.234-.706 2.504-1.578h-4.1v-1.59h4.1c-.27-.87-1.02-1.572-2.504-1.572H8.034V5.892h.034v-.016z" fill="#BDC3C7" fill-rule="evenodd"/>
</svg>
