<svg width="24" height="23" viewBox="0 0 24 23" xmlns="http://www.w3.org/2000/svg">
  <path class="icon" d="M18.096 14.043c0-.513.417-.932.932-.932h3.26c.516 0 .933.42.933.933v7.92c0 .515-.416.93-.93.93h-3.262c-.515 0-.932-.415-.932-.93v-7.92zM.86 7.987c0-.513.416-.93.93-.93h3.263c.515 0 .93.417.93.93v13.976c0 .513-.415.93-.93.93H1.79c-.514 0-.93-.417-.93-.93V7.987zm8.478-6.522c0-.513.416-.932.932-.932h3.26c.514 0 .932.42.932.932v20.498c0 .515-.418.93-.932.93h-3.26c-.516 0-.932-.415-.932-.93V1.465z" fill="#BDC3C7" fill-rule="evenodd"/>
</svg>
