<?xml version="1.0" encoding="utf-8"?>
<!-- Generator: Adobe Illustrator 19.0.1, SVG Export Plug-In . SVG Version: 6.00 Build 0)  -->
<svg version="1.1" id="Logo" xmlns="http://www.w3.org/2000/svg" xmlns:xlink="http://www.w3.org/1999/xlink" x="0px" y="0px"
	 viewBox="-347 280.3 146 35" style="enable-background:new -347 280.3 146 35;" xml:space="preserve">
<path id="m" d="M-337,298c-0.6-1.2-1-2.4-1.3-3.5c0,1.2-0.2,2.5-0.5,3.8l-3,13.5h-4.1l6.5-28.6l8.1,17.3c0.3,0.6,0.8,1.8,1.5,3.7
	c0.4-1,0.8-2,1.2-3l0.3-0.7l7.9-17.3l6.7,28.6h-4.2l-3-13.6c-0.1-0.3-0.2-0.9-0.2-1.8l-0.3-2c-0.2,1.3-0.7,2.5-1.3,3.8l-7.2,14.7
	L-337,298z"/>
<path id="v" d="M-244.8,284.3h4.7l6.2,14.7c0.7,1.6,1.2,3.1,1.5,4.4c0.3-1.4,0.8-2.9,1.5-4.4l6.2-14.7h4.6l-12.3,28.6L-244.8,284.3z
	"/>
<path id="e" d="M-217.5,284.3h15.4v3.8H-213v6.9h10.9v3.9H-213v8.9h10.9v4h-15.4V284.3z"/>
<path id="_x38_" d="M-260.6,282.6c-7,0-13.5,6.6-16.8,10.5c-3.3-4-9.7-10.5-16.8-10.5c-8.2,0-14.9,6.6-14.9,14.8
	c0,8.1,6.7,14.8,14.9,14.8c7,0,13.5-6.6,16.8-10.5c3.3,4,9.7,10.5,16.8,10.5c8.2,0,14.9-6.6,14.9-14.8
	C-245.7,289.2-252.4,282.6-260.6,282.6L-260.6,282.6z M-294.2,307.7c-5.7,0-10.3-4.6-10.3-10.3c0-5.7,4.6-10.3,10.3-10.3
	c5.3,0,11.4,6.4,14.4,10.3C-282.8,301.2-288.9,307.7-294.2,307.7L-294.2,307.7z M-260.4,307.7c-5.3,0-11.4-6.4-14.4-10.3
	c3-3.8,9.1-10.3,14.4-10.3c5.7,0,10.3,4.6,10.3,10.3C-250.1,303-254.7,307.7-260.4,307.7L-260.4,307.7z"/>
</svg>
