<?xml version="1.0" encoding="UTF-8"?>
<svg width="13px" height="14px" viewBox="0 0 13 14" version="1.1" xmlns="http://www.w3.org/2000/svg" xmlns:xlink="http://www.w3.org/1999/xlink">
    <!-- Generator: sketchtool 40.1 (33804) - http://www.bohemiancoding.com/sketch -->
    <title>FEFA6A57-5826-4C2D-9960-CC14C19563A2</title>
    <desc>Created with sketchtool.</desc>
    <defs></defs>
    <g id="Page-1" stroke="none" stroke-width="1" fill="none" fill-rule="evenodd" fill-opacity="1">
        <g class="phone-ico" id="Employer_Active-Trip_02" transform="translate(-488.000000, -275.000000)" fill="#ffffff">
            <g id="Group-3" transform="translate(170.000000, 228.946360)">
                <g id="Group">
                    <g id="Table">
                        <g id="Assign" transform="translate(295.000000, 0.000000)">
                            <path d="M30.3738889,57.3855556 L31.9627778,55.7966667 C32.1577778,55.6016667 32.4466667,55.5366667 32.6994444,55.6233333 C33.5083333,55.8905556 34.3822222,56.035 35.2777778,56.035 C35.675,56.035 36,56.36 36,56.7572222 L36,59.2777778 C36,59.675 35.675,60 35.2777778,60 C28.4961111,60 23,54.5038889 23,47.7222222 C23,47.325 23.325,47 23.7222222,47 L26.25,47 C26.6472222,47 26.9722222,47.325 26.9722222,47.7222222 C26.9722222,48.625 27.1166667,49.4916667 27.3838889,50.3005556 C27.4633333,50.5533333 27.4055556,50.835 27.2033333,51.0372222 L25.6144444,52.6261111 C26.6544444,54.67 28.33,56.3383333 30.3738889,57.3855556 Z" id="call" transform="translate(29.500000, 53.500000) scale(-1, 1) translate(-29.500000, -53.500000) "></path>
                        </g>
                    </g>
                </g>
            </g>
        </g>
    </g>
</svg>