<?xml version="1.0" encoding="UTF-8"?>
<svg width="14px" height="23px" viewBox="0 0 14 23" version="1.1" xmlns="http://www.w3.org/2000/svg" xmlns:xlink="http://www.w3.org/1999/xlink">
    <!-- Generator: sketchtool 40.1 (33804) - http://www.bohemiancoding.com/sketch -->
    <title>9B2F9D7E-96D4-441D-9598-6A0CE8BB4800</title>
    <desc>Created with sketchtool.</desc>
    <defs></defs>
    <g id="Page-1" stroke="none" stroke-width="1" fill="none" fill-rule="evenodd">
        <g class="pin-body" id="Employer_Active-Trip_01" transform="translate(-729.000000, -328.000000)" stroke="#00A89F">
            <g transform="translate(111.000000, 213.000000)">
                <g id="Time" transform="translate(593.000000, 0.000000)">
                    <path d="M37.2530315,118.920783 C36.5436804,117.650772 35.4250882,116.672392 33.933632,116.15498 C33.6698989,116.060905 33.4061658,115.985645 33.1333385,115.938608 C32.8423226,115.882163 32.5240241,115.844533 32.1966312,115.825718 L31.8055787,115.825718 C31.4781859,115.844533 31.1598873,115.882163 30.8688714,115.938608 C30.5869498,115.985645 30.3232167,116.060905 30.0685779,116.15498 C28.5771217,116.672392 27.4494353,117.650772 26.7400842,118.920783 C26.2580892,119.79568 25.9306963,120.88695 26.0125446,122.222814 C26.0398273,122.834301 26.2035237,123.389343 26.3854086,123.88794 C26.5763877,124.37713 26.7946496,124.819282 27.0492885,125.242619 C28.0405612,126.907746 29.3774152,128.384722 30.1322376,130.285036 C30.5232901,131.2446 30.8597772,132.251202 31.150793,133.323657 C31.4327146,134.386703 31.6964478,135.506195 31.8055787,136.738577 L32.1966312,136.738577 C32.3057622,135.506195 32.560401,134.386703 32.8423226,133.323657 C33.1333385,132.251202 33.4789198,131.2446 33.8608781,130.285036 C34.6247947,128.384722 35.9616487,126.907746 36.9438272,125.242619 C37.2075603,124.819282 37.4258222,124.37713 37.6168013,123.88794 C37.7986862,123.389343 37.9532884,122.834301 37.9896654,122.222814 C38.0624193,120.88695 37.7441208,119.79568 37.2530315,118.920783 L37.2530315,118.920783 Z M31.9954455,124.145888 C30.7292969,124.145888 29.7090909,123.135134 29.7090909,121.892557 C29.7090909,120.649979 30.7292969,119.648499 31.9954455,119.648499 C33.2615941,119.648499 34.2909091,120.649979 34.2909091,121.892557 C34.2909091,123.135134 33.2615941,124.145888 31.9954455,124.145888 L31.9954455,124.145888 Z" id="pin"></path>
                </g>
            </g>
        </g>
    </g>
</svg>