<svg width="24" height="24" viewBox="0 0 24 24" xmlns="http://www.w3.org/2000/svg">
  <path class="icon" d="M23.694 23.44s0-1.6-.132-2.44c-.11-.662-1.027-1.536-4.923-2.968-3.837-1.408-3.6-.722-3.6-3.315 0-1.682.856-.704 1.4-3.898.213-1.257.383-.42.844-2.435.243-1.055-.163-1.135-.114-1.638.048-.504.097-.954.187-1.984.11-1.273-1.075-4.63-5.317-4.63S6.615 3.49 6.73 4.77c.09 1.027.14 1.482.187 1.985.05.503-.358.583-.115 1.638.462 2.01.632 1.172.844 2.435.547 3.19 1.4 2.215 1.4 3.897 0 2.598.238 1.912-3.598 3.315C1.55 19.466.628 20.346.525 21.008c-.14.83-.14 2.433-.14 2.433h23.31z" fill="#BDC3C7" fill-rule="evenodd"/>
</svg>
