<svg width="25" height="23" viewBox="0 0 25 23" xmlns="http://www.w3.org/2000/svg">
  <path class="icon" d="M22.11 1.528C21.834.713 21.057.133 20.14.133H4.86c-.916 0-1.68.58-1.97 1.395L0 9.798v11.047c0 .76.625 1.38 1.39 1.38h1.388c.764 0 1.39-.62 1.39-1.38v-1.38h16.665v1.38c0 .76.625 1.38 1.39 1.38h1.388c.765 0 1.39-.62 1.39-1.38V9.8l-2.89-8.272zM4.86 15.322c-1.152 0-2.082-.925-2.082-2.07 0-1.147.93-2.072 2.083-2.072 1.154 0 2.084.925 2.084 2.07 0 1.147-.93 2.072-2.083 2.072zm15.28 0c-1.154 0-2.084-.925-2.084-2.07 0-1.147.93-2.072 2.083-2.072 1.152 0 2.082.925 2.082 2.07 0 1.147-.93 2.072-2.083 2.072zM2.777 8.418L4.86 2.204h15.28l2.082 6.214H2.778z" fill="#BDC3C7" fill-rule="evenodd"/>
</svg>
