<?xml version="1.0" encoding="UTF-8"?>
<svg width="23px" height="26px" viewBox="0 0 88 90" version="1.1" xmlns="http://www.w3.org/2000/svg" xmlns:xlink="http://www.w3.org/1999/xlink">
    <!-- Generator: Sketch 49.1 (51147) - http://www.bohemiancoding.com/sketch -->
    <title>Configurator</title>
    <desc>Created with Sketch.</desc>
    <defs></defs>
    <g id="Website-v2" stroke="none" stroke-width="1" fill="none" fill-rule="evenodd">
        <g id="W/F---2.1" transform="translate(-96.000000, -744.000000)" fill="#FFFFFF">
            <g id="noun_406884_cc" transform="translate(96.000000, 744.000000)">
                <path class="icon" d="M70.625,0 C65.446925,0.252962 60.707699,3.0779873 58.5,7.8125 C56.650314,11.778948 56.97472,16.260494 58.96875,20.03125 L17.28125,61.71875 C10.919154,60.713465 4.599878,63.634485 1.9375,69.34375 C-0.2705618,74.079198 0.6138741,79.495521 3.75,83.625 L8.15625,74.15625 C8.823161,72.726054 10.507201,72.114374 11.9375,72.78125 L20.4375,76.71875 C21.867574,77.385713 22.479411,79.069839 21.8125,80.5 L17.375,90 C22.552867,89.747021 27.292301,86.92203 29.5,82.1875 C31.349478,78.221035 31.025315,73.739506 29.03125,69.96875 C43.958864,55.088084 57.183266,41.758251 70.71875,28.28125 C77.080847,29.286656 83.400312,26.365533 86.0625,20.65625 C88.27077,15.920872 87.385953,10.504444 84.25,6.375 L79.84375,15.84375 C79.176873,17.273876 77.492592,17.885644 76.0625,17.21875 L67.5625,13.28125 C66.132218,12.614357 65.520589,10.93016 66.1875,9.5 L70.625,0 Z M11.09375,1.4375 C8.444308,1.4375 5.780156,2.4698619 3.75,4.5 C-0.3102935,8.56031 -0.3102242,15.095956 3.75,19.15625 C12.430855,27.828514 21.425001,36.83177 30.09375,45.5 L44.75,30.84375 C35.708796,21.794181 26.539635,12.629419 18.40625,4.5 C16.37613,2.4698792 13.743192,1.4375 11.09375,1.4375 Z M52.875,49.5 C51.333624,51.043576 49.791411,52.612692 48.25,54.15625 L63.375,69.21875 C66.095774,71.932927 69.78125,80.90625 69.78125,80.90625 L82.75,88.5625 C84.350534,86.961932 85.654358,85.626892 87.28125,84 L79.65625,71.03125 C79.65625,71.03125 70.682926,67.345774 67.96875,64.625 L52.875,49.5 Z" id="Configurator" fill="#BDC3C7"></path>
            </g>
        </g>
    </g>
</svg>