<?xml version="1.0" encoding="utf-8"?>
<!-- Generator: Adobe Illustrator 21.0.0, SVG Export Plug-In . SVG Version: 6.00 Build 0)  -->
<svg version="1.1" id="Layer_1" xmlns="http://www.w3.org/2000/svg" xmlns:xlink="http://www.w3.org/1999/xlink" x="0px" y="0px"
	 viewBox="0 0 938.8 183.2" style="enable-background:new 0 0 938.8 183.2;" xml:space="preserve">
<style type="text/css">
	.st0{stroke:#000000;stroke-width:3;stroke-linejoin:round;stroke-miterlimit:10;}
</style>
<g>
	<path class="st0" d="M215.3,10.9H235l66.2,125.2l65.7-125.2h20.5L311.7,155v0.1l-10.5,19.6l-9.7-18.5L215.3,10.9z"/>
	<path class="st0" d="M516.7,171.6h-19.9L430.6,46.3l-65.7,125.3h-20.4l75.7-144.1v-0.1l10.6-19.6l9.7,18.5L516.7,171.6z"/>
	<path class="st0" d="M689.8,171.6h-19.9L603.7,46.3L538,171.6h-20.4l75.7-144.1v-0.1l10.6-19.6l9.7,18.5L689.8,171.6z"/>
	<path class="st0" d="M706.4,120.7L648.8,11h18.6l47.4,91.4L762.3,11h18.5l-57.6,109.7v50.7h-16.8V120.7z"/>
	<path class="st0" d="M930.6,89.7c-0.3,22.6-7.5,41.9-21.7,58c-14.3,16.1-31.6,24.1-51.7,24.1c-20.2,0-37.4-8.1-51.8-24.2
		c-14.2-16-21.4-35.4-21.6-58.1V10.9h16.3v78.6c0.2,17.9,5.9,33.1,17.1,45.7c11.1,12.5,24.4,18.8,40,18.8s28.9-6.2,39.9-18.7
		c11.2-12.5,16.9-27.7,17.2-45.6V10.9h16.3V89.7z"/>
	<g transform="matrix(1,0,0,1,25.4585,371)">
		<g>
			<g>
				<g transform="matrix(1.6501,0,0,1.73937,-20.4577,-366.011)">
					<path d="M62.2,1.8c7.3,3.4,13.5,7,19,10.2c12.1,7.1,18.2,10.2,34.8,10.2V9c-12.8,0-16.8-1-27.4-7.2H62.2z"/>
				</g>
				<g transform="matrix(1.6501,0,0,1.73937,-20.4577,-366.011)">
					<path d="M36.8,87.8C24.6,80.6,18.6,77.5,2,77.5v13.2c12.8,0,16.8,1,27.4,7.2h26.4C48.5,94.6,42.3,91,36.8,87.8"/>
				</g>
				<g transform="matrix(1.6501,0,0,1.73937,-20.4577,-366.011)">
					<path d="M116,34.3c-20,0-28.4-4.9-41.2-12.4C58.9,12.5,39,1.8,2,1.8L2,15c33.6,0,51.1,8.6,66.5,17.6
						C82,40.6,92.6,47.5,116,47.5V34.3z M116,84.8c-33.6,0-51.1-9.6-66.5-18.6C36,58.2,25.4,52.3,2,52.3l0,13.2
						c20,0,28.4,3.9,41.2,11.4c16,9.4,35.9,21,72.9,21L116,84.8z"/>
				</g>
				<g transform="matrix(1.6501,0,0,1.73937,-20.4577,-366.011)">
					<path d="M116,72.9c-30.2,0-45.5-8.9-60.2-17.6c-13.9-8.2-27-15-53.8-15l0-13.2c30.2,0,45.5,8.8,60.2,17.4
						c13.9,8.2,27,15.2,53.8,15.2V72.9z"/>
				</g>
			</g>
		</g>
	</g>
</g>
<path class="st0" d="M1541,10.1v52c-10.2-2.6-20-3.9-29.5-3.9c-19,0-33,10.2-33,26.7c0,18.8,18.1,34.4,37.7,34.4
	c9.2,0,17.5-2.6,24.8-8l-0.4,47.9l12.1,3.2l1.1-1.2L1553.4,10C1549.3,10,1545.1,10.1,1541,10.1z M1541.3,84.1
	c0,17.8-21.7,23-30.6,23c-12.9,0-18.9-7.2-18.9-15.5c0-10.5,8.1-21.4,30.6-21.4c6.2,0,12.5,0.6,18.9,2.3V84.1z"/>
<path class="st0" d="M1584,22.6l-0.3,136.7l12.1,3.2l1.1-1.2l-0.4-138.4C1592.3,23,1588.1,22.8,1584,22.6z"/>
<path class="st0" d="M1684,10v69.8c0,7.5-2.6,12.5-7.5,15.9c-6.2,4.1-12.7,7.9-19.4,7.9c-16.1,0-22.8-13.4-22.8-16.7
	c0-1.3,0.9-2.2,2.9-2.9c14.4-5.3,20.2-10.3,20.2-20.7c0-4.6-1.8-12.2-5.9-19.4h-10.3c2.7,4.1,4.4,9.2,4.4,13.2
	c0,9.2-10.9,10.7-25.6,15.5l-1.1,1.8c7.1,21.5,21.4,41.7,42.6,41.7c8.1,0,15.7-3.7,22.5-8.9l-0.4,52.1l12.2,3.2l1.1-1.2L1696.3,10
	H1684z"/>
<g transform="matrix(1,0,0,1,25.4585,371)">
	<g>
		<g>
			<g transform="matrix(1.6501,0,0,1.73937,-20.4577,-366.011)">
				<path d="M822.3,1.1c7.3,3.4,13.5,7,19,10.2c12.1,7.1,18.2,10.2,34.8,10.2V8.3c-12.8,0-16.8-1-27.4-7.2H822.3z"/>
			</g>
			<g transform="matrix(1.6501,0,0,1.73937,-20.4577,-366.011)">
				<path d="M796.8,87.1c-12.1-7.1-18.2-10.2-34.8-10.2v13.2c12.8,0,16.8,1,27.4,7.2h26.4C808.5,93.9,802.3,90.3,796.8,87.1"/>
			</g>
			<g transform="matrix(1.6501,0,0,1.73937,-20.4577,-366.011)">
				<path d="M876.1,33.6c-20,0-28.4-4.9-41.2-12.4C819,11.8,799.1,1.1,762,1.1l0,13.2c33.6,0,51.1,8.6,66.6,17.6
					c13.5,7.9,24.1,14.8,47.5,14.8V33.6z M876.1,84.1c-33.6,0-51.1-9.6-66.6-18.6c-13.5-7.9-24.1-13.8-47.5-13.8l0,13.2
					c20,0,28.4,3.9,41.2,11.4c16,9.4,35.9,21,72.9,21L876.1,84.1z"/>
			</g>
			<g transform="matrix(1.6501,0,0,1.73937,-20.4577,-366.011)">
				<path d="M876.1,72.2c-30.2,0-45.5-8.9-60.2-17.6c-13.9-8.2-27-15-53.9-15l0-13.2c30.2,0,45.5,8.8,60.2,17.4
					c13.9,8.2,27,15.2,53.9,15.2V72.2z"/>
			</g>
		</g>
	</g>
</g>
<path d="M1554,174.2h-13.6c-0.7,0-1.3-0.6-1.3-1.3v-15.1c0-0.7,0.6-1.3,1.3-1.3h13.6c0.7,0,1.3,0.6,1.3,1.3v15.1
	C1555.3,173.6,1554.7,174.2,1554,174.2z"/>
<path d="M1597,174.2h-13.6c-0.7,0-1.3-0.6-1.3-1.3v-15.1c0-0.7,0.6-1.3,1.3-1.3h13.6c0.7,0,1.3,0.6,1.3,1.3v15.1
	C1598.3,173.6,1597.8,174.2,1597,174.2z"/>
<path d="M1697.1,174.2h-13.7c-0.7,0-1.3-0.6-1.3-1.3v-15.1c0-0.7,0.6-1.3,1.3-1.3h13.7c0.7,0,1.3,0.6,1.3,1.3v15.1
	C1698.4,173.6,1697.8,174.2,1697.1,174.2z"/>
<path d="M1596.6,29.3h-12.9c-0.7,0-1.3-0.6-1.3-1.3v-18c0-0.7,0.6-1.3,1.3-1.3h12.9c0.7,0,1.3,0.6,1.3,1.3v18
	C1597.9,28.7,1597.3,29.3,1596.6,29.3z"/>
<path d="M1724.5,176c-0.8-0.3-2.4-0.2-3.2-0.2h-43.4c0,0,0,0,0,0h-14c-1.5,0-2.7,1.2-2.7,2.7v8.4c0,1.5,1.2,2.7,2.7,2.7h14
	c0.1,0,0.2,0,0.3-0.1h42c1.2,0.1,2.1,0.9,3.3,0.9c8.6,0,15.5,8.6,15.5,18.9c0,9.6-5.9,17.7-13.7,18.8c-0.9-0.4-2-0.7-3.1-0.7
	c-2.6,0-5.2-2.1-5.2-5.2c0-2.6,2.1-5.2,5.2-5.2c3.9,0,6.9-3,6.9-6.9c0-3.9-3-6.9-6.9-6.9c-10.7,0-19.3,8.6-19.3,19.3
	c0,10.7,8.6,19.3,19.3,19.3c0.2,0,0.4-0.1,0.6-0.1c0.2,0,0.5,0.1,0.7,0.1c16.3,0,29.6-15,29.6-32.6
	C1753.1,191,1740.7,176.2,1724.5,176z"/>
</svg>
