<svg width="23" height="26" viewBox="0 0 23 26" xmlns="http://www.w3.org/2000/svg">
  <path class="icon" d="M20.444 2.6h-5.34C14.566 1.092 13.16 0 11.5 0 9.84 0 8.433 1.092 7.897 2.6h-5.34C1.15 2.6 0 3.77 0 5.2v18.2C0 24.83 1.15 26 2.556 26h17.888C21.85 26 23 24.83 23 23.4V5.2c0-1.43-1.15-2.6-2.556-2.6zm-8.944 0c.703 0 1.278.585 1.278 1.3 0 .715-.575 1.3-1.278 1.3-.703 0-1.278-.585-1.278-1.3 0-.715.575-1.3 1.278-1.3zm2.556 18.2H5.11v-2.6h8.946v2.6zm3.833-5.2H5.11V13h12.78v2.6zm0-5.2H5.11V7.8h12.78v2.6z" fill="#BDC3C7" fill-rule="evenodd"/>
</svg>
